<svg xmlns="http://www.w3.org/2000/svg" xmlns:xlink="http://www.w3.org/1999/xlink" width="980" height="680" viewBox="0 0 980 680">
  <defs>
    <filter id="a" width="113.3%" height="120%" x="-6.7%" y="-10%" filterUnits="objectBoundingBox">
      <feMorphology in="SourceAlpha" operator="dilate" radius="2.5" result="shadowSpreadOuter1"/>
      <feOffset in="shadowSpreadOuter1" result="shadowOffsetOuter1"/>
      <feGaussianBlur in="shadowOffsetOuter1" result="shadowBlurOuter1" stdDeviation="17.5"/>
      <feColorMatrix in="shadowBlurOuter1" values="0 0 0 0 0 0 0 0 0 0 0 0 0 0 0 0 0 0 0.5 0"/>
    </filter>
    <rect id="b" width="900" height="600" x="0" y="0" rx="80"/>
  </defs>
  <g fill="none" fill-rule="evenodd">
    <g transform="translate(40 40)">
      <use xlink:href="#b" fill="#000" filter="url(#a)"/>
      <use xlink:href="#b" fill="#006FCF"/>
    </g>
    <g fill-rule="nonzero">
      <path fill="#FFF" d="M792.004 315.688h60.58V174.93h-65.925v19.599l-12.472-19.6h-57.016v24.945l-10.69-24.944H601.36c-3.564 0-7.127 1.781-10.69 1.781-3.564 0-5.346 1.782-8.91 3.564-3.563 1.781-5.345 1.781-8.908 3.563v-8.908H271.737l-8.908 23.162-8.91-23.162H182.65v24.944l-10.69-24.944h-57.016L90 235.51v80.178h40.98l7.127-19.6h14.254l7.127 19.6h313.585V297.87l12.473 17.818h87.305v-10.69c1.782 1.781 5.345 1.781 7.127 3.563 1.781 1.782 5.345 1.782 7.127 3.563 3.563 1.782 7.127 1.782 10.69 1.782h64.143l7.127-19.6h14.253l7.127 19.6h87.306v-17.817l14.253 19.599ZM890 493.86V362.013H400.022L387.55 379.83l-12.472-17.817H232.539V502.77h142.539l12.472-17.817 12.472 17.817h89.087v-30.29h-3.563c12.472 0 23.162-1.781 32.07-5.345v37.417h64.143v-17.817l12.473 17.817H859.71c10.69-3.564 21.381-5.345 30.29-10.69Z"/>
      <path fill="#006FCF" d="M859.71 460.008h-48.106v19.6h46.325c19.599 0 32.071-12.473 32.071-30.29s-10.69-26.726-28.508-26.726h-21.38c-5.346 0-8.91-3.564-8.91-8.909 0-5.345 3.564-8.908 8.91-8.908h40.98l8.908-19.6h-48.107c-19.599 0-32.071 12.473-32.071 28.508 0 17.818 10.69 26.726 28.508 26.726h21.38c5.346 0 8.91 3.564 8.91 8.909 1.78 7.127-1.783 10.69-8.91 10.69Zm-87.305 0h-48.107v19.6h46.326c19.599 0 32.07-12.473 32.07-30.29s-10.69-26.726-28.507-26.726h-21.38c-5.346 0-8.91-3.564-8.91-8.909 0-5.345 3.564-8.908 8.91-8.908h40.98l8.908-19.6h-48.107c-19.6 0-32.071 12.473-32.071 28.508 0 17.818 10.69 26.726 28.507 26.726h21.381c5.346 0 8.909 3.564 8.909 8.909 1.782 7.127-3.563 10.69-8.909 10.69Zm-62.36-57.015v-19.6h-74.833v94.433h74.833v-19.6h-53.453v-19.598h51.67v-19.6h-51.67v-17.817h53.453v1.782Zm-121.159 0c8.91 0 12.473 5.345 12.473 10.69s-3.564 10.69-12.473 10.69H562.16v-23.162l26.726 1.782Zm-26.726 40.98h10.69l28.509 33.853h26.726l-32.072-35.635c16.036-3.563 24.945-14.254 24.945-28.508 0-17.817-12.472-30.29-32.072-30.29h-49.888v94.433h21.38l1.782-33.853Zm-57.015-28.508c0 7.127-3.564 12.472-12.472 12.472h-28.508v-24.944h26.726c8.909 0 14.254 5.345 14.254 12.472Zm-62.361-32.071v94.432h21.38v-32.071h28.509c19.599 0 33.853-12.473 33.853-32.072 0-17.817-12.473-32.071-32.072-32.071l-51.67 1.782Zm-32.071 94.432h26.726l-37.417-48.107 37.417-46.325h-26.726l-23.163 30.29-23.162-30.29H337.66l37.417 46.325-37.417 46.325h26.727l23.162-30.29 23.163 32.072Zm-80.178-74.833v-19.6h-74.833v94.433h74.833v-19.6h-53.453v-19.598h51.67v-19.6h-51.67v-17.817h53.453v1.782ZM763.497 235.51l37.416 57.015h26.726v-94.432h-21.38v62.36l-5.346-8.908-33.853-53.452h-28.508v94.432h21.381v-64.142l3.564 7.127Zm-92.65-1.782 7.126-19.6 7.127 19.6 8.909 21.38h-32.071l8.908-21.38Zm37.416 58.797h23.162l-40.98-94.432h-28.507l-40.98 94.432h23.162l8.909-19.599h46.325l8.909 19.6Zm-99.777 0 8.908-19.599h-5.345c-16.036 0-24.944-10.69-24.944-26.726v-1.782c0-16.035 8.908-26.726 24.944-26.726h23.163v-19.599h-24.945c-28.508 0-44.543 19.6-44.543 46.325v1.782c0 28.508 16.035 46.325 42.762 46.325Zm-80.179 0h21.381v-92.65h-21.38v92.65Zm-46.325-74.833c8.909 0 12.472 5.345 12.472 10.69 0 5.346-3.563 10.691-12.472 10.691h-26.726V215.91l26.726 1.782Zm-26.726 40.98h10.69l28.508 33.853h26.726l-32.07-35.635c16.035-3.563 24.943-14.253 24.943-28.507 0-17.818-12.472-30.29-32.07-30.29h-49.89v94.432h21.381l1.782-33.853Zm-39.198-40.98v-19.599h-74.833v94.432h74.833v-19.599h-53.452v-19.6h51.67v-19.598h-51.67V215.91h53.452v1.782ZM253.92 292.525h19.599l26.726-76.615v76.615h21.38v-94.432h-35.634l-21.38 64.143-21.382-64.143h-35.634v94.432h21.38V215.91l24.945 76.615Zm-115.813-58.797 7.127-19.6 7.127 19.6 8.908 21.38H129.2l8.908-21.38Zm37.416 58.797h23.163l-40.98-94.432H130.98L90 292.525h23.163l8.908-19.599h46.325l7.127 19.6Z"/>
    </g>
  </g>
</svg>