<svg xmlns="http://www.w3.org/2000/svg" xmlns:xlink="http://www.w3.org/1999/xlink" width="980" height="680" viewBox="0 0 980 680">
  <defs>
    <filter id="a" width="113.3%" height="120%" x="-6.7%" y="-10%" filterUnits="objectBoundingBox">
      <feMorphology in="SourceAlpha" operator="dilate" radius="2.5" result="shadowSpreadOuter1"/>
      <feOffset in="shadowSpreadOuter1" result="shadowOffsetOuter1"/>
      <feGaussianBlur in="shadowOffsetOuter1" result="shadowBlurOuter1" stdDeviation="17.5"/>
      <feColorMatrix in="shadowBlurOuter1" values="0 0 0 0 0 0 0 0 0 0 0 0 0 0 0 0 0 0 0.5 0"/>
    </filter>
    <rect id="b" width="900" height="600" x="0" y="0" rx="80"/>
  </defs>
  <g fill="none" fill-rule="evenodd">
    <g transform="translate(40 40)">
      <use xlink:href="#b" fill="#000" filter="url(#a)"/>
      <use xlink:href="#b" fill="#FECC00"/>
    </g>
    <path fill="#F60" stroke="#333" stroke-width="10" d="M935 385v175c0 20.71-8.395 39.46-21.967 53.033C899.461 626.605 880.711 635 860 635H120c-20.71 0-39.46-8.395-53.033-21.967C53.395 599.461 45 580.711 45 560V385h890Z"/>
    <g fill="#333" fill-rule="nonzero">
      <path d="M204.6 563V456.2h14.7l23.1 64.35h.3V456.2H258V563h-14.4l-23.4-64.2h-.3V563zM302.7 525.65l-7.5-38.7h-.3l-7.5 38.7h15.3ZM264.9 563l23.85-106.8h12.75L325.35 563h-15.3l-4.5-22.95H284.7L280.2 563h-15.3ZM381.45 532.55v6.6c0 3.3-.625 6.425-1.875 9.375a25.934 25.934 0 0 1-5.175 7.875 24.949 24.949 0 0 1-7.725 5.475c-2.95 1.35-6.125 2.025-9.525 2.025-2.9 0-5.85-.4-8.85-1.2-3-.8-5.7-2.2-8.1-4.2-2.4-2-4.375-4.575-5.925-7.725-1.55-3.15-2.325-7.175-2.325-12.075v-58.8c0-3.5.6-6.75 1.8-9.75 1.2-3 2.9-5.6 5.1-7.8 2.2-2.2 4.825-3.925 7.875-5.175s6.425-1.875 10.125-1.875c7.2 0 13.05 2.35 17.55 7.05 2.2 2.3 3.925 5.025 5.175 8.175 1.25 3.15 1.875 6.575 1.875 10.275v6h-15.3v-5.1c0-3-.85-5.6-2.55-7.8-1.7-2.2-4-3.3-6.9-3.3-3.8 0-6.325 1.175-7.575 3.525-1.25 2.35-1.875 5.325-1.875 8.925v54.6c0 3.1.675 5.7 2.025 7.8 1.35 2.1 3.775 3.15 7.275 3.15 1 0 2.075-.175 3.225-.525A9.622 9.622 0 0 0 363 546.35c.9-.8 1.65-1.9 2.25-3.3.6-1.4.9-3.15.9-5.25v-5.25h15.3ZM393.9 563V456.2h15.3v45.75h18.9V456.2h15.3V563h-15.3v-47.55h-18.9V563zM457.2 563V456.2h14.7l23.1 64.35h.3V456.2h15.3V563h-14.4l-23.4-64.2h-.3V563zM555.3 525.65l-7.5-38.7h-.3l-7.5 38.7h15.3ZM517.5 563l23.85-106.8h12.75L577.95 563h-15.3l-4.5-22.95H537.3L532.8 563h-15.3ZM585.45 563V456.2h15.3v45.75h18.9V456.2h15.3V563h-15.3v-47.55h-18.9V563zM649.35 563V456.2h14.7l19.65 56.55h.3l19.5-56.55h14.85V563h-15.3v-64.95h-.3l-15.15 45.9h-7.65l-15-45.9h-.3V563zM732.75 563V456.2h45.6v14.4h-30.3v31.35h26.4v14.4h-26.4v31.35h30.3V563z"/>
    </g>
    <g fill="#D50029" fill-rule="nonzero">
      <path d="m198.274 206.668-28.755 39.063h156.713c7.922 0 7.817 3.01 3.945 8.255-3.932 5.325-10.512 14.585-14.518 19.992-2.032 2.745-5.707 7.745 6.471 7.745h64.086s10.33-14.057 18.986-25.808c11.781-15.984 1.023-49.247-41.089-49.247h-165.84Z"/>
      <path d="m157.884 333.936 57.755-78.473h71.67c7.92 0 7.818 3.01 3.946 8.255-3.932 5.324-10.62 14.486-14.626 19.894-2.033 2.745-5.707 7.754 6.47 7.754h96.013c-7.984 10.938-33.887 42.57-80.394 42.57H157.884ZM488.647 291.355l-31.32 42.581h-82.616s31.302-42.57 31.33-42.57l82.606-.011ZM615.211 281.723H413.138l55.259-75.055h82.591l-31.672 43.037h36.868l31.685-43.037h82.585zM608.12 291.366l-31.335 42.57h-82.583s31.3-42.57 31.328-42.57h82.59ZM40 308.152h121.71l-6.648 9.044H40zM40 291.364h134.075l-6.661 9.033H40zM40 324.948h109.352l-6.617 8.988H40zM940 317.196H818.758l6.653-9.042H940zM940 333.936l-133.567.01 6.613-8.998H940zM837.76 291.366H940v9.036l-108.886.006zM784.835 206.668l-55.25 75.055h-87.517s55.266-75.055 55.293-75.055h87.474ZM634.986 291.366s-6.037 8.25-8.97 12.215c-10.374 14.021-1.203 30.355 32.652 30.355h132.64l31.328-42.57h-187.65Z"/>
    </g>
  </g>
</svg>
