<svg xmlns="http://www.w3.org/2000/svg" xmlns:xlink="http://www.w3.org/1999/xlink" width="980" height="680" viewBox="0 0 980 680">
  <defs>
    <linearGradient id="c" x1="50%" x2="50%" y1="0%" y2="100%">
      <stop offset="0%" stop-color="#FFF"/>
      <stop offset="100%" stop-color="#EDEDED"/>
    </linearGradient>
    <filter id="a" width="113.3%" height="120%" x="-6.7%" y="-10%" filterUnits="objectBoundingBox">
      <feMorphology in="SourceAlpha" operator="dilate" radius="2.5" result="shadowSpreadOuter1"/>
      <feOffset in="shadowSpreadOuter1" result="shadowOffsetOuter1"/>
      <feGaussianBlur in="shadowOffsetOuter1" result="shadowBlurOuter1" stdDeviation="17.5"/>
      <feColorMatrix in="shadowBlurOuter1" values="0 0 0 0 0 0 0 0 0 0 0 0 0 0 0 0 0 0 0.5 0"/>
    </filter>
    <rect id="b" width="900" height="600" x="0" y="0" rx="80"/>
  </defs>
  <g fill="none" fill-rule="evenodd">
    <g transform="translate(40 40)">
      <use xlink:href="#b" fill="#000" filter="url(#a)"/>
      <use xlink:href="#b" fill="url(#c)"/>
    </g>
    <g fill-rule="nonzero">
      <path fill="#10298E" d="M267.74 300.737h-54.738c0-8.984-1.056-15.01-3.159-18.082-3.258-4.538-12.247-6.812-26.96-6.812-14.292 0-23.765 1.306-28.387 3.924-4.621 2.628-6.937 8.338-6.937 17.128 0 7.958 2.05 13.205 6.157 15.713 2.94 1.786 6.828 2.832 11.669 3.144l11.039.78c23.66 1.567 38.436 2.676 44.328 3.306 18.71 1.884 32.274 6.86 40.69 14.922 6.62 6.292 10.571 14.515 11.83 24.665.74 6.073 1.104 12.949 1.104 20.584 0 17.602-1.681 30.49-5.038 38.655-6.095 14.99-19.788 24.457-41.091 28.433-8.926 1.682-22.578 2.52-40.945 2.52-30.656 0-52.016-1.822-64.08-5.491-14.803-4.492-24.567-13.595-29.287-27.299-2.634-7.63-3.935-20.34-3.935-38.13h54.738c0 1.983.005 3.503.005 4.55 0 9.493 2.727 15.593 8.176 18.315 3.774 1.873 8.328 2.857 13.684 2.977h20.126c10.269 0 16.822-.526 19.648-1.582 5.033-1.978 8.338-5.164 9.915-9.572.838-2.717 1.254-6.225 1.254-10.524 0-9.623-3.513-15.478-10.53-17.581-2.627-.828-14.827-1.988-36.614-3.45-17.498-1.25-29.651-2.452-36.454-3.618-17.92-3.352-29.864-10.248-35.823-20.715-5.242-8.89-7.86-22.344-7.86-40.347 0-13.703 1.416-24.696 4.247-32.96 2.832-8.271 7.396-14.548 13.694-18.842 9.228-6.594 21.037-10.461 35.407-11.617 11.96-1.046 25.228-1.577 39.821-1.577 22.974 0 39.348 1.322 49.107 3.94 23.822 6.402 35.73 24.327 35.73 53.786 0 2.415-.177 6.027-.531 10.857M508.45 449.619V231H618.07c15.037 0 26.508 1.223 34.393 3.68 18.029 5.647 30.125 17.217 36.323 34.694 3.196 9.176 4.8 22.99 4.8 41.435 0 22.177-1.776 38.108-5.289 47.815-7.031 19.185-21.5 30.24-43.355 33.102-2.571.432-13.506.812-32.81 1.124l-9.764.323h-35.08v56.445H508.45Zm58.838-107.16h36.678c11.632-.416 18.705-1.311 21.25-2.711 3.477-1.91 5.814-5.741 6.975-11.482.744-3.82 1.113-9.504 1.113-17.05 0-9.25-.739-16.104-2.222-20.58-2.113-6.271-7.182-10.086-15.208-11.476-1.593-.208-5.392-.323-11.414-.323h-37.172v63.622ZM819.18 411.837H740.51l-10.57 37.78h-60.875L734.755 231h88.755L890 449.618h-59.594l-11.226-37.781Zm-11.685-42.59-27.569-94.767-26.752 94.767h54.321Z"/>
      <path fill="#FFBE00" d="M427.239 261.757c24.264 0 45.926 11.18 60.161 28.688l12.684-27.195c-19.835-18.747-46.832-30.307-76.608-30.307-46.363 0-86.023 28.002-102.298 67.64h-24.733l-14.604 31.307h31.816c-.24 2.904-.395 5.808-.395 8.775 0 3.586.187 7.135.541 10.638h-15.989l-14.599 31.317h38.723c16.738 38.634 55.903 65.756 101.538 65.756 23 0 44.339-6.891 62.009-18.664v-38.38c-14.23 16.203-35.043 26.44-58.246 26.44-27.122 0-50.98-13.985-64.871-35.152h81.078l14.605-31.317H350.439a78.889 78.889 0 0 1-.854-11.544c0-2.654.135-5.277.396-7.87H467.1l14.6-31.305H360.104c13.449-23.208 38.473-38.827 67.135-38.827"/>
      <path fill="#10298E" d="M427.239 262.694c23.124 0 44.786 10.337 59.432 28.345l.948 1.166.64-1.358 12.678-27.195.281-.62-.484-.468c-20.85-19.705-48.289-30.556-77.258-30.556-22.625 0-44.39 6.61-62.956 19.116-18.128 12.21-32.035 29.194-40.206 49.101l.864-.583H295.842l-.25.542-14.6 31.311-.624 1.338h33.289l-.937-1.02c-.265 3.253-.395 6.141-.395 8.853 0 3.513.182 7.13.541 10.732l.937-1.03h-16.582l-.25.54-14.61 31.312-.619 1.338h40.196l-.864-.568c17.456 40.29 57.652 66.324 102.402 66.324 22.432 0 44.047-6.501 62.53-18.815l.41-.276V388.84l-1.64 1.874c-14.577 16.598-35.547 26.112-57.537 26.112-25.867 0-49.824-12.986-64.09-34.726l-.781 1.458h81.682l.25-.536 14.604-31.322.625-1.333H350.439l.931.802a78.757 78.757 0 0 1-.843-11.409c0-2.576.13-5.189.39-7.776l-.936.849h117.724l.25-.542 14.6-31.31.63-1.339H360.103l.812 1.411c13.709-23.66 39.129-38.359 66.323-38.359m-67.135 38.827H481.7l-.854-1.337-14.594 31.311.849-.541h-117.97l-.093.848a81.62 81.62 0 0 0-.39 7.958c0 3.872.29 7.807.858 11.685l.125.801h108.419l-.849-1.337-14.599 31.311.843-.541h-82.822l.958 1.447c14.61 22.286 39.16 35.574 65.657 35.574 22.526 0 44.016-9.744 58.954-26.747l-1.65-.62v38.38l.416-.776c-18.17 12.101-39.425 18.498-61.483 18.498-44.006 0-83.52-25.592-100.674-65.194l-.25-.562H283.215l.859 1.343 14.594-31.322-.854.546H314.84l-.1-1.035c-.353-3.54-.54-7.094-.54-10.545 0-2.655.13-5.502.395-8.697l.083-1.015h-32.836l.848 1.337 14.605-31.31-.849.54h25.363l.234-.583c8.041-19.564 21.709-36.25 39.53-48.257 18.247-12.289 39.66-18.79 61.904-18.79 28.49 0 55.461 10.665 75.962 30.042l-.208-1.082-12.673 27.2 1.577-.199c-15.016-18.45-37.203-29.036-60.895-29.036-27.871 0-53.9 15.057-67.952 39.295l-.817 1.41h1.634Z"/>
    </g>
  </g>
</svg>
