<svg xmlns="http://www.w3.org/2000/svg" xmlns:xlink="http://www.w3.org/1999/xlink" width="980" height="680" viewBox="0 0 980 680">
  <defs>
    <linearGradient id="c" x1="50%" x2="50%" y1="0%" y2="100%">
      <stop offset="0%" stop-color="#FFF"/>
      <stop offset="100%" stop-color="#EDEDED"/>
    </linearGradient>
    <filter id="a" width="113.3%" height="120%" x="-6.7%" y="-10%" filterUnits="objectBoundingBox">
      <feMorphology in="SourceAlpha" operator="dilate" radius="2.5" result="shadowSpreadOuter1"/>
      <feOffset in="shadowSpreadOuter1" result="shadowOffsetOuter1"/>
      <feGaussianBlur in="shadowOffsetOuter1" result="shadowBlurOuter1" stdDeviation="17.5"/>
      <feColorMatrix in="shadowBlurOuter1" values="0 0 0 0 0 0 0 0 0 0 0 0 0 0 0 0 0 0 0.5 0"/>
    </filter>
    <rect id="b" width="900" height="600" x="0" y="0" rx="80"/>
  </defs>
  <g fill="none" fill-rule="evenodd">
    <g transform="translate(40 40)">
      <use xlink:href="#b" fill="#000" filter="url(#a)"/>
      <use xlink:href="#b" fill="url(#c)"/>
    </g>
    <g fill-rule="nonzero">
      <path fill="#000" d="M166.895 469.183h19.312l27.316 91.605h.33l27.4-91.605h19.31l-39.777 120.325H206.59l-39.696-120.325Zm91.44 77.41c0-9.023.743-15.955 2.229-20.796 1.54-4.732 3.906-8.72 7.097-11.967 2.366-2.86 5.667-5.42 9.904-7.675 4.181-2.146 9.545-3.274 16.092-3.384 6.768.11 12.242 1.238 16.423 3.384 4.127 2.256 7.318 4.814 9.574 7.675 3.41 3.246 5.831 7.235 7.262 11.967 1.375 4.841 2.063 11.773 2.063 20.797 0 9.023-.688 15.9-2.063 20.631-1.43 4.732-3.851 8.83-7.262 12.297-1.1 1.265-2.449 2.503-4.044 3.714-1.43 1.375-3.274 2.558-5.53 3.548-4.181 2.366-9.655 3.604-16.423 3.714-6.547-.11-11.911-1.348-16.092-3.714-4.237-2.145-7.538-4.566-9.904-7.262-3.19-3.466-5.557-7.565-7.097-12.297-1.486-4.731-2.228-11.608-2.228-20.631Zm53.396.166c0-6.108-.275-10.564-.825-13.37-.55-2.696-1.678-5.062-3.384-7.097-1.265-1.926-3.136-3.439-5.612-4.54-2.366-1.155-5.117-1.732-8.253-1.732-2.916 0-5.611.577-8.087 1.733-2.366 1.1-4.292 2.613-5.777 4.539-1.486 2.035-2.559 4.401-3.219 7.097-.66 2.806-.99 7.207-.99 13.205 0 5.942.33 10.288.99 13.039.66 2.806 1.733 5.282 3.219 7.427 1.485 1.65 3.41 3.109 5.777 4.374 2.476 1.21 5.171 1.816 8.087 1.816 3.136 0 5.887-.605 8.253-1.816 2.476-1.265 4.347-2.723 5.612-4.374 1.706-2.145 2.833-4.621 3.384-7.427.55-2.751.825-7.042.825-12.874Zm35.322-42.915H364.3v9.078h.33c5.667-6.767 13.094-10.15 22.282-10.15 6.878.11 12.875 2.31 17.991 6.602L392.36 524.31c-3.631-2.86-7.4-4.291-11.306-4.291-4.402 0-8.17 1.43-11.306 4.291-3.522 2.806-5.337 7.345-5.447 13.617v51.58h-17.248v-85.664Zm65.774-34.661h17.248v74.852h.33l32.929-40.19h20.632l-29.545 33.423 33.588 52.24h-21.622l-22.777-40.026-13.535 15.35v24.676h-17.248V469.183Zm132.704 112.732h-.33c-1.596 2.916-4.071 5.062-7.428 6.437-3.3 1.43-7.867 2.146-13.7 2.146-9.572-.11-16.945-2.64-22.116-7.592-5.447-4.842-8.17-11.032-8.17-18.57 0-7.207 2.365-13.176 7.097-17.908 4.731-4.841 11.664-7.317 20.797-7.427h23.85v-8.996c.11-7.537-5.75-11.196-17.578-10.976-4.292 0-7.675.44-10.151 1.32-2.586 1.046-4.622 2.807-6.107 5.283l-13.535-10.316c6.547-8.583 16.203-12.765 28.967-12.545 10.784-.11 19.394 1.926 25.831 6.107 6.438 4.292 9.711 11.664 9.821 22.118v58.512h-17.248v-7.593Zm0-28.72h-20.632c-10.013.22-14.965 3.66-14.855 10.317 0 2.916 1.293 5.391 3.879 7.427 2.476 2.256 6.575 3.384 12.297 3.384 7.207.11 12.296-.743 15.267-2.559 2.696-1.815 4.044-5.942 4.044-12.379v-6.19Zm42.089 10.152c6.987 7.317 16.01 10.976 27.069 10.976 4.952 0 8.995-.963 12.132-2.889 3.136-1.925 4.704-4.621 4.704-8.087 0-3.081-.936-5.227-2.806-6.438-1.926-1.265-4.484-1.953-7.675-2.063l-15.185-1.32c-7.208-.66-13.067-3.081-17.579-7.263-4.621-4.071-6.987-9.765-7.097-17.083.11-8.803 3.218-15.405 9.325-19.806 5.942-4.402 13.48-6.603 22.613-6.603 3.961 0 7.51.248 10.646.743 3.136.55 6.08 1.32 8.83 2.311 5.282 2.146 10.014 5.034 14.195 8.665l-10.646 12.462a53.084 53.084 0 0 0-10.48-5.86c-3.632-1.375-7.813-2.063-12.545-2.063-5.392 0-9.16.963-11.306 2.889-2.256 1.925-3.384 4.401-3.384 7.427-.11 1.926.743 3.604 2.558 5.034 1.651 1.596 4.567 2.614 8.748 3.054l14.195 1.073c8.913.66 15.35 3.356 19.311 8.088 3.687 4.621 5.53 10.48 5.53 17.578-.11 8.308-3.494 14.717-10.151 19.229-6.602 4.621-15.048 6.987-25.336 7.097-13.975 0-26.546-5.117-37.715-15.35l12.049-11.801Zm81.124 0c6.988 7.317 16.01 10.976 27.07 10.976 4.951 0 8.995-.963 12.13-2.889 3.137-1.925 4.705-4.621 4.705-8.087 0-3.081-.935-5.227-2.806-6.438-1.926-1.265-4.484-1.953-7.675-2.063l-15.185-1.32c-7.207-.66-13.067-3.081-17.578-7.263-4.622-4.071-6.988-9.765-7.098-17.083.11-8.803 3.219-15.405 9.326-19.806 5.942-4.402 13.48-6.603 22.612-6.603 3.962 0 7.51.248 10.646.743 3.136.55 6.08 1.32 8.83 2.311 5.283 2.146 10.014 5.034 14.196 8.665l-10.646 12.462a53.084 53.084 0 0 0-10.481-5.86c-3.632-1.375-7.813-2.063-12.545-2.063-5.391 0-9.16.963-11.306 2.889-2.256 1.925-3.383 4.401-3.383 7.427-.11 1.926.742 3.604 2.558 5.034 1.65 1.596 4.566 2.614 8.748 3.054l14.194 1.073c8.913.66 15.35 3.356 19.312 8.088 3.686 4.621 5.53 10.48 5.53 17.578-.11 8.308-3.494 14.717-10.152 19.229-6.602 4.621-15.047 6.987-25.336 7.097-13.974 0-26.546-5.117-37.715-15.35l12.05-11.801Zm91.606-10.151c0 6.877 1.98 12.104 5.942 15.68 3.686 3.631 8.528 5.447 14.525 5.447 6.987 0 13.232-2.779 18.733-8.336l12.462 10.646c-8.748 9.354-19.036 13.975-30.865 13.865a44.65 44.65 0 0 1-13.205-1.98 32.147 32.147 0 0 1-6.272-2.889 30.38 30.38 0 0 1-6.024-3.879c-3.631-3.19-6.575-7.647-8.83-13.37-2.476-5.501-3.714-12.653-3.714-21.456 0-8.473 1.072-15.516 3.218-21.127 2.146-5.722 4.897-10.234 8.253-13.535 3.411-3.356 7.235-5.777 11.471-7.262 4.182-1.486 8.308-2.229 12.38-2.229 9.793.11 18.073 3.329 24.84 9.656 6.877 6.437 10.371 15.295 10.481 26.574v14.195H760.35ZM796.497 539c-.22-6.657-2.008-11.691-5.364-15.103-3.302-3.246-7.538-4.869-12.71-4.869-5.171 0-9.408 1.623-12.709 4.87-3.246 3.41-5.034 8.445-5.364 15.102h36.147Z"/>
      <path fill="#FFF" d="M173.99 187.439c4.39-20.718 23.007-38.607 55.85-53.668h354.919l48.17 50.283v213.278l-48.17 34.427h-366l-44.768-34.427c-4.39-119.211-4.39-189.176 0-209.893Z"/>
      <path fill="#FFF875" stroke="#EC008C" d="M478.68 170.99c5.163-.916 10.36-.301 15.02 1.608a26.94 26.94 0 0 1 12.14 9.88 26.721 26.721 0 0 1 4.57 14.947 26.721 26.721 0 0 1-4.57 14.948 26.94 26.94 0 0 1-12.14 9.879 27.103 27.103 0 0 1-15.02 1.609H242.37c-5.162.915-10.36.3-15.019-1.61a26.94 26.94 0 0 1-12.141-9.878 26.721 26.721 0 0 1-4.57-14.948 26.721 26.721 0 0 1 4.57-14.948 26.94 26.94 0 0 1 12.141-9.879 27.103 27.103 0 0 1 15.02-1.609H478.68ZM423.914 259.744c7.45 0 14.194 3.003 19.076 7.852 4.895 4.862 7.92 11.58 7.92 19s-3.025 14.138-7.92 19a26.986 26.986 0 0 1-19.076 7.852H241.568a26.986 26.986 0 0 1-19.076-7.851c-4.896-4.863-7.92-11.582-7.92-19 0-7.42 3.024-14.139 7.92-19.001a26.986 26.986 0 0 1 19.076-7.852h182.346Z"/>
      <path fill="#4D4D4D" d="M622.317 299.216v85.288c-.306 24.752-20.595 44.657-45.517 44.655H229.84c-25.139 0-45.517-20.24-45.517-45.21V189.243c0-24.969 20.378-45.21 45.516-45.21H576.8c25.138 0 45.517 20.241 45.517 45.21v31.896l10.611-10.54v-21.356c0-30.636-25.004-55.472-55.849-55.472H229.84c-30.844 0-55.848 24.836-55.848 55.472v195.261c0 30.637 25.004 55.472 55.848 55.472H576.8c30.845 0 55.849-24.835 55.849-55.472v-88.478l-10.332 3.19Z"/>
      <path fill="#FFF875" stroke="#EC008C" d="M478.991 349.332a27.099 27.099 0 0 1 14.144 2.831 26.921 26.921 0 0 1 10.793 9.889 26.723 26.723 0 0 1 0 28.124 26.921 26.921 0 0 1-10.793 9.89 27.099 27.099 0 0 1-14.144 2.83h-236.93a27.099 27.099 0 0 1-14.145-2.83 26.921 26.921 0 0 1-10.793-9.89 26.723 26.723 0 0 1 0-28.124 26.921 26.921 0 0 1 10.793-9.889 27.099 27.099 0 0 1 14.144-2.831h236.931Z"/>
      <path fill="#4D4D4D" d="m601.653 251.926-16.895 52.699 53.057-16.781zM641.445 279.94l-32.113-32.035L756.633 98.408a16.11 16.11 0 0 1 11.45-4.767 16.11 16.11 0 0 1 11.448 4.767l12.566 12.48a16.01 16.01 0 0 1 0 22.744L641.445 279.94Z"/>
      <path fill="#4D4D4D" d="m641.445 284.377-36.86-36.472L754.26 96.327a19.613 19.613 0 0 1 13.962-5.827c5.253 0 10.286 2.1 13.962 5.827l12.566 12.62a18.94 18.94 0 0 1 6.054 13.868 18.94 18.94 0 0 1-6.054 13.868L641.445 284.377Zm-27.924-36.472 27.924 27.735 148.418-144.365a12.836 12.836 0 0 0 0-18.167l-12.705-12.482c-5.063-4.988-13.228-4.988-18.29 0L613.52 247.905Z"/>
      <path fill="#3D502B" d="M629.438 255.393a13.8 13.8 0 0 1 0-19.276l125.66-124.812c5.568-3.922 13.174-3.27 17.984 1.541a13.798 13.798 0 0 1 1.423 17.874l-125.66 124.812c-5.45 5.157-14.033 5.096-19.407-.139Z"/>
      <path fill="#000" d="M520.717 253.48c-4.856 0-8.855 1.402-11.999 4.208-3.144 2.805-5.174 6.875-6.089 12.207h24.057v10.507h-24.952l-.12 2.089v2.806l.12 1.97h21.191v10.625H502.75c2.03 9.67 8.416 14.506 19.162 14.506 5.69 0 11.162-1.134 16.416-3.403v15.282c-4.617 2.348-10.447 3.522-17.49 3.522-9.751 0-17.77-2.646-24.058-7.94-6.288-5.292-10.248-12.615-11.88-21.967h-8.177v-10.626h7.044c-.16-.915-.24-2.149-.24-3.7l.12-3.164h-6.924v-10.507h7.939c1.472-9.63 5.432-17.242 11.88-22.833 6.446-5.591 14.505-8.387 24.176-8.387 7.481 0 14.486 1.632 21.012 4.895l-5.85 13.85c-2.746-1.235-5.313-2.2-7.7-2.896a26.513 26.513 0 0 0-7.462-1.045Z"/>
      <path fill="#4D4D4D" d="M520.717 253.48c-4.856 0-8.855 1.402-11.999 4.208-3.144 2.805-5.174 6.875-6.089 12.207h24.057v10.507h-24.952l-.12 2.089v2.806l.12 1.97h21.191v10.625H502.75c2.03 9.67 8.416 14.506 19.162 14.506 5.69 0 11.162-1.134 16.416-3.403v15.282c-4.617 2.348-10.447 3.522-17.49 3.522-9.751 0-17.77-2.646-24.058-7.94-6.288-5.292-10.248-12.615-11.88-21.967h-8.177v-10.626h7.044c-.16-.915-.24-2.149-.24-3.7l.12-3.164h-6.924v-10.507h7.939c1.472-9.63 5.432-17.242 11.88-22.833 6.446-5.591 14.505-8.387 24.176-8.387 7.481 0 14.486 1.632 21.012 4.895l-5.85 13.85c-2.746-1.235-5.313-2.2-7.7-2.896a26.513 26.513 0 0 0-7.462-1.045Z"/>
    </g>
  </g>
</svg>